# xmcd
#
# Track frame offsets: 
#        182
#        14437
#        36775
#        55475
#        73507
#        97867
#        110410
#        126072
#        147345
#        170302
#        192545
#        214132
#
# Disc length: 3080 seconds
#
# Revision: 4
# Processed by: cddbd v1.5.2PL0 Copyright (c) Steve Scherf et al.
# Submitted via: ExactAudioCopy v0.95a5
#
DISCID=ab0c060c
DTITLE=Various Artist - Blues Rock
DYEAR=1997
DGENRE=Blues
TTITLE0=John Mayall and the Blues Breakers featuring Eric Clapton - Ramb
TTITLE0=lin' On My Mind
TTITLE1=Allman Brothers Band - Hoochie Coochie Man
TTITLE2=Robert Cray Band - Smoking Gun
TTITLE3=Rod Stewart - Bring It On Home To Me - You Send Me
TTITLE4=Savoy Brown - Sunday Night
TTITLE5=Johnny Winter - Johnny B. Good
TTITLE6=Roy Buchanan - Tribute To Elmore James
TTITLE7=John Mayall - Room To Move
TTITLE8=Eric Burdon - St. James Infirmary
TTITLE9=Atlanta Rhythm Section - Outside Woman Blues
TTITLE10=Greg Allman Band - Come and Go Blues
TTITLE11=Pat Travers - Statesboro Blues
EXTD=LABEL =Polygram Records, Inc.\nID =314520444-2\nUPC =7314-5204
EXTD=44-26\nCOPYRIGHT =1997\n*****\nYEAR: 1997
EXTT0=
EXTT1=
EXTT2=
EXTT3=
EXTT4=Bonus CD Track
EXTT5=
EXTT6=
EXTT7=Bonus CD Track
EXTT8=
EXTT9=
EXTT10=
EXTT11=
PLAYORDER=
